#N canvas 680 181 659 661 10;
#X msg 278 268 stop;
#X msg 218 267 play;
#X obj 14 51 cnv 15 100 60 empty empty empty 20 12 0 14 -195568 -66577
0;
#N canvas 0 54 1920 975 gemwin 0;
#X obj 133 276 gemwin;
#X obj 122 406 outlet;
#X obj 104 115 inlet;
#X obj 104 153 route create;
#X msg 81 307 set destroy;
#X msg 186 197 set create;
#X msg 117 197 destroy;
#X msg 104 224 reset \, dimen 640 480 \, create \, 1;
#X connect 2 0 3 0;
#X connect 3 0 4 0;
#X connect 3 0 7 0;
#X connect 3 1 5 0;
#X connect 3 1 6 0;
#X connect 4 0 1 0;
#X connect 5 0 1 0;
#X connect 6 0 0 0;
#X connect 7 0 0 0;
#X restore 19 90 pd gemwin;
#X msg 19 71 create;
#X text 15 53 Create window:;
#X obj 277 337 gemhead;
#X obj 277 422 pix_image;
#X obj 287 366 loadbang;
#X obj 277 544 pix_texture;
#X obj 277 566 rectangle 4 3;
#X msg 227 239 loop 0;
#X obj 163 19 bng 15 250 50 0 empty empty empty 17 7 0 10 -262144 -1
-1;
#X obj 277 449 scaleXYZ 8 8 0;
#X obj 128 336 route t a b;
#X obj 132 383 pack f f;
#X obj 132 410 line;
#X obj 204 386 pack f f;
#X obj 204 413 line;
#X msg 287 393 open images/Thetriumphofdeath.jpg;
#X obj 277 519 translateXYZ 3.32 -1.12 0;
#X obj 128 301 pdmtl/seq.qtrack id;
#X obj 260 92 path current;
#X obj 260 117 list;
#X obj 260 141 concat;
#X msg 285 64 /data.txt;
#X obj 163 46 t b b b b b;
#X msg 217 144 read;
#X obj 258 210 list;
#X connect 0 0 21 1;
#X connect 1 0 21 1;
#X connect 3 0 4 0;
#X connect 4 0 3 0;
#X connect 6 0 7 0;
#X connect 7 0 13 0;
#X connect 8 0 19 0;
#X connect 9 0 10 0;
#X connect 11 0 21 1;
#X connect 12 0 26 0;
#X connect 13 0 20 0;
#X connect 14 0 15 1;
#X connect 14 0 17 1;
#X connect 14 1 15 0;
#X connect 14 2 17 0;
#X connect 15 0 16 0;
#X connect 16 0 20 1;
#X connect 17 0 18 0;
#X connect 18 0 20 2;
#X connect 19 0 7 0;
#X connect 20 0 9 0;
#X connect 21 0 14 0;
#X connect 22 0 23 0;
#X connect 23 0 24 0;
#X connect 24 0 28 1;
#X connect 25 0 23 1;
#X connect 26 0 1 0;
#X connect 26 1 11 0;
#X connect 26 2 27 0;
#X connect 26 3 22 0;
#X connect 26 4 25 0;
#X connect 27 0 28 0;
#X connect 28 0 21 1;
